<?xml version="1.0" encoding="UTF-8"?><svg id="Camada_2" xmlns="http://www.w3.org/2000/svg" viewBox="0 0 906.2 216.48"><defs><style>.cls-1{fill:#fff;fill-rule:evenodd;}</style></defs><g id="Camada_1-2"><path class="cls-1" d="M91.03,132l-36.63,69.9h-30.86l60.09-114.68,46.92,89.54L223.18,0h-16.04l-53.12,101.38-23.47-44.8-23.47,44.78-23.62-45.1L0,216.19h62.98l36.08-68.86-8.03-15.33h0ZM185.52,102.51l52.08,99.39h-30.9l-36.63-69.9-8.03,15.33,35.82,69.16,63.28-.29-67.59-129-8.03,15.33h0ZM115.11,116.7l15.44-29.47,15.44,29.48-15.44,29.45-15.44-29.47h0Z"/><path class="cls-1" d="M870.5,84.37c19.72,0,35.7,15.98,35.7,35.7s-15.98,35.7-35.7,35.7-35.7-15.98-35.7-35.7,15.98-35.7,35.7-35.7h0ZM870.5,99.66c11.27,0,20.41,9.14,20.41,20.41s-9.14,20.41-20.41,20.41-20.41-9.14-20.41-20.41,9.14-20.41,20.41-20.41h0ZM479.23,84.37c19.72,0,35.7,15.98,35.7,35.7s-15.98,35.7-35.7,35.7-35.7-15.98-35.7-35.7,15.98-35.7,35.7-35.7h0ZM479.23,99.66c11.27,0,20.41,9.14,20.41,20.41s-9.14,20.41-20.41,20.41-20.41-9.14-20.41-20.41,9.13-20.41,20.41-20.41h0ZM368.49,133.01l21.93-15.24v38.01l14.01-.3v-71.11l-35.93,28.31-35.93-28.31v71.11l14.01.3v-38.01l21.93,15.24h0ZM614.89,153.96l-.19-69.88h-14.01l-.38,36.55-46.44-36.27v71.11l14.01.3v-38.01l47.01,36.2h0ZM689.19,98.37v57.33h-15.28v-57.33h-20.12v-15.27h55.52v15.27h-20.12ZM763.3,140.44h32.66v15.28h-47.93v-72.62h47.93v15.27h-32.66v13.41h24.5v15.27h-24.5v13.39h0Z"/></g></svg>