<?xml version="1.0" standalone="no"?>
<!DOCTYPE svg PUBLIC "-//W3C//DTD SVG 20010904//EN"
 "http://www.w3.org/TR/2001/REC-SVG-20010904/DTD/svg10.dtd">
<svg version="1.0" xmlns="http://www.w3.org/2000/svg"
 width="2639.000000pt" height="372.000000pt" viewBox="0 0 2639.000000 372.000000"
 preserveAspectRatio="xMidYMid meet">

<g transform="translate(0.000000,372.000000) scale(0.100000,-0.100000)"
fill="#000000" stroke="none">
<path d="M2 1898 l3 -1673 357 -3 358 -2 2 895 3 896 462 -400 c255 -220 467
-403 473 -406 5 -3 223 176 482 399 l473 404 5 -891 5 -892 353 -3 352 -2 0
1676 c0 1591 -1 1676 -17 1663 -10 -8 -384 -330 -831 -717 -725 -627 -814
-701 -830 -690 -10 7 -382 328 -826 713 -444 385 -812 702 -817 703 -5 2 -8
-661 -7 -1670z"/>
<path d="M6575 3563 c-84 -7 -260 -45 -348 -74 -1033 -342 -1474 -1548 -905
-2477 61 -100 122 -176 222 -281 227 -234 479 -380 791 -461 296 -76 642 -64
935 31 131 42 337 146 450 226 122 88 307 272 393 393 79 111 195 341 230 455
154 498 86 1009 -191 1435 -311 480 -847 766 -1419 758 -65 -1 -136 -3 -158
-5z m358 -744 c355 -71 625 -320 733 -674 26 -83 28 -103 28 -255 0 -190 -16
-266 -84 -409 -53 -110 -111 -189 -201 -277 -378 -365 -963 -360 -1334 11
-157 156 -248 345 -275 568 -32 273 59 545 253 753 228 244 556 349 880 283z"/>
<path d="M10170 1896 l0 -1676 350 0 350 0 0 896 c0 538 4 894 9 892 5 -1 472
-394 1037 -873 566 -478 1038 -878 1051 -888 l23 -18 0 1670 0 1671 -355 0
-355 0 0 -900 c0 -495 -3 -900 -7 -900 -5 0 -476 403 -1047 895 -571 493
-1043 898 -1048 901 -4 3 -8 -749 -8 -1670z"/>
<path d="M14750 3205 l0 -365 465 0 465 0 0 -1310 0 -1310 345 0 345 0 0 1310
0 1310 460 0 460 0 0 365 0 365 -1270 0 -1270 0 0 -365z"/>
<path d="M19050 1890 l0 -1680 1119 0 c616 0 1122 3 1125 8 2 4 2 166 -1 360
l-6 352 -764 0 -763 0 0 298 0 299 158 6 c86 4 352 7 590 7 l432 0 0 355 0
355 -590 0 -590 0 0 295 0 295 768 2 767 3 3 363 2 362 -1125 0 -1125 0 0
-1680z"/>
<path d="M24545 3564 c-693 -75 -1272 -568 -1450 -1235 -110 -414 -51 -893
152 -1247 256 -442 647 -728 1140 -832 128 -27 381 -37 523 -21 768 90 1381
703 1471 1471 16 143 6 395 -21 525 -142 673 -654 1182 -1326 1315 -107 22
-385 35 -489 24z m328 -739 c522 -91 872 -583 782 -1098 -73 -421 -409 -735
-842 -788 -566 -68 -1081 418 -1050 991 15 258 108 462 295 642 219 211 520
305 815 253z"/>
</g>
</svg>
