<?xml version="1.0" standalone="no"?>
<!DOCTYPE svg PUBLIC "-//W3C//DTD SVG 20010904//EN"
 "http://www.w3.org/TR/2001/REC-SVG-20010904/DTD/svg10.dtd">
<svg version="1.0" xmlns="http://www.w3.org/2000/svg"
 width="400.000000pt" height="400.000000pt" viewBox="0 0 400.000000 400.000000"
 preserveAspectRatio="xMidYMid meet">

<g transform="translate(0.000000,400.000000) scale(0.100000,-0.100000)"
fill="#000000" stroke="none">
<path d="M3119 2420 l-30 -49 -146 -3 -145 -3 -1 -77 -2 -77 43 -3 43 -3 0
-250 0 -250 -43 -5 -43 -5 0 -78 0 -77 338 0 337 0 0 150 0 150 -101 0 -100 0
2 -67 3 -68 -95 0 -94 0 -3 78 -3 77 66 0 65 0 0 90 0 89 -62 3 -63 3 -3 83
-3 83 97 -3 97 -3 1 -70 1 -70 98 -3 97 -3 0 156 0 155 -120 0 c-66 0 -120 2
-120 6 0 3 11 22 25 42 14 20 25 40 25 44 0 5 -29 8 -65 8 l-65 0 -31 -50z"/>
<path d="M1092 2362 c-54 -20 -136 -89 -148 -124 -3 -10 -10 -18 -15 -18 -6 0
-9 29 -8 73 l2 72 -196 3 -197 2 0 -85 0 -85 45 0 45 0 0 -250 0 -250 -45 0
-45 0 0 -80 0 -80 291 0 c255 0 290 2 285 15 -7 20 3 19 60 -7 39 -18 68 -22
144 -23 86 0 100 3 147 29 140 77 168 273 52 370 -46 39 -91 60 -207 96 -156
48 -210 108 -146 159 57 45 144 16 192 -64 l27 -44 98 -1 97 0 0 65 0 65 60 0
60 0 0 -245 0 -245 -45 0 -45 0 0 -90 0 -90 195 0 195 0 0 90 0 90 -50 0 -50
0 0 245 0 245 60 0 60 0 0 -122 c0 -228 34 -334 135 -426 170 -155 407 -155
571 0 212 200 158 549 -104 679 -58 28 -80 34 -158 37 -76 4 -104 0 -158 -18
-36 -12 -68 -26 -71 -31 -12 -19 -25 -8 -25 21 l0 30 -410 0 -410 0 0 -24 0
-24 -62 25 c-83 34 -159 39 -226 15z m-176 -201 c-10 -63 11 -138 51 -182 42
-47 131 -90 233 -114 136 -32 185 -72 164 -133 -29 -83 -167 -56 -226 44 l-20
34 -84 0 -84 0 0 -55 0 -56 -62 3 -63 3 -3 248 -2 247 51 0 52 0 -7 -39z
m1580 4 c133 -39 194 -199 124 -322 -70 -122 -229 -148 -332 -55 -101 91 -105
226 -9 322 66 66 128 82 217 55z"/>
</g>
</svg>
