<?xml version="1.0" encoding="UTF-8"?>
<svg version="1.1" xmlns="http://www.w3.org/2000/svg" width="731" height="256">
<path d="M0 0 C1.89630381 1.64147764 3.76670003 3.30300218 5.61328125 5 C5.67386719 3.79601562 5.73445312 2.59203125 5.796875 1.3515625 C5.88127857 -0.22397077 5.96592666 -1.79949096 6.05078125 -3.375 C6.09009766 -4.1690625 6.12941406 -4.963125 6.16992188 -5.78125 C6.5 -11.7734375 6.5 -11.7734375 7.61328125 -14 C20.81328125 -14 34.01328125 -14 47.61328125 -14 C47.61328125 49.69 47.61328125 113.38 47.61328125 179 C34.41328125 179 21.21328125 179 7.61328125 179 C5.96348055 175.70039859 6.23069764 172.00872116 6.05078125 168.375 C5.98600586 167.17230469 5.98600586 167.17230469 5.91992188 165.9453125 C5.81376668 163.9637489 5.7130127 161.98189729 5.61328125 160 C5.12601563 160.4846875 4.63875 160.969375 4.13671875 161.46875 C-11.39554953 176.15380365 -29.17515576 181.9023444 -50.15649414 181.65185547 C-52.81867146 181.62505584 -55.47662191 181.65173639 -58.13867188 181.68359375 C-81.64049624 181.73149944 -101.35162697 172.40653398 -118.51171875 156.3125 C-138.27563973 135.52347938 -147.51837632 108.40941488 -147.38671875 80 C-146.26765358 50.87501073 -135.45259153 25.25324267 -114.38671875 5 C-110.53111351 1.76824601 -106.5384318 -1.16169751 -102.38671875 -4 C-101.61070312 -4.55429688 -100.8346875 -5.10859375 -100.03515625 -5.6796875 C-70.59205152 -25.20724493 -26.73374909 -22.40209416 0 0 Z M-90.6171875 39.38671875 C-103.10223093 54.30786821 -106.94104592 71.94067198 -105.38671875 91 C-103.84218069 105.15576628 -97.43375235 120.60367257 -86.38671875 130 C-71.67758824 141.16366642 -55.35783617 145.9520352 -36.8515625 143.5390625 C-22.19479881 140.77976037 -10.59092363 134.26596526 -1.63671875 122.25 C9.3938451 105.44881709 11.85045025 85.35882226 8.02172852 65.88208008 C4.94086971 51.7094453 -2.25692899 38.40240645 -14.38671875 30 C-39.2583636 15.05581567 -70.47913902 17.83794883 -90.6171875 39.38671875 Z " fill="#FA7D00" transform="translate(683.38671875,75)"/>
<path d="M0 0 C1.64099853 1.3769893 3.26641371 2.77278242 4.875 4.1875 C5.62523437 4.84234375 6.37546875 5.4971875 7.1484375 6.171875 C24.86058414 22.70321187 34.02079784 47.23270016 34.875 71.1875 C34.91496094 72.02925781 34.95492187 72.87101562 34.99609375 73.73828125 C35.20804301 82.15391364 33.94664961 89.61430313 32.875 98.1875 C-15.305 98.1875 -63.485 98.1875 -113.125 98.1875 C-110.15612438 107.60612912 -110.15612438 107.60612912 -106.125 116.1875 C-105.650625 117.05375 -105.17625 117.92 -104.6875 118.8125 C-103.17665641 121.283202 -103.17665641 121.283202 -100.9375 123.375 C-100.339375 123.973125 -99.74125 124.57125 -99.125 125.1875 C-99.125 125.8475 -99.125 126.5075 -99.125 127.1875 C-98.55652344 127.44917969 -97.98804688 127.71085938 -97.40234375 127.98046875 C-94.94854385 129.28102479 -92.89714092 130.81948052 -90.6875 132.5 C-76.22943965 142.69070333 -58.32740332 145.07318773 -41.12329102 142.36572266 C-27.12495794 139.88147873 -13.43864646 134.21122663 -4.25390625 122.87890625 C-3.88136719 122.32074219 -3.50882813 121.76257813 -3.125 121.1875 C0.49634322 122.71737504 2.81074017 124.87867222 5.5703125 127.65234375 C6.45074219 128.53470703 7.33117187 129.41707031 8.23828125 130.32617188 C9.14964844 131.24978516 10.06101562 132.17339844 11 133.125 C12.37865234 134.50461914 12.37865234 134.50461914 13.78515625 135.91210938 C20.59388951 142.76583426 20.59388951 142.76583426 22.875 146.1875 C22.59300292 151.94964036 18.97050349 154.70839339 15.0078125 158.49609375 C5.62870605 166.79253164 -5.28090142 173.14660407 -17.125 177.1875 C-18.03556152 177.5287793 -18.94612305 177.87005859 -19.88427734 178.22167969 C-30.11878529 181.66223592 -39.92844101 181.80053568 -50.63818359 181.70898438 C-53.62029316 181.68753386 -56.59999438 181.70888332 -59.58203125 181.734375 C-70.4653838 181.74987916 -79.84272936 181.03607255 -90.125 177.1875 C-91.1572168 176.81963379 -92.18943359 176.45176758 -93.25292969 176.07275391 C-113.31661361 168.69419684 -128.48172147 154.76022592 -140.125 137.1875 C-140.8984375 136.05054688 -140.8984375 136.05054688 -141.6875 134.890625 C-155.4920331 113.46483925 -158.45891454 85.66317835 -153.9375 60.9375 C-149.63749373 43.33932621 -142.39612009 27.58723482 -130.125 14.1875 C-129.35414063 13.33542969 -128.58328125 12.48335937 -127.7890625 11.60546875 C-95.57377601 -22.33005148 -37.58378062 -29.18678804 0 0 Z M-102.125 39.1875 C-107.16625993 45.82175922 -113.125 54.56993632 -113.125 63.1875 C-77.485 63.1875 -41.845 63.1875 -5.125 63.1875 C-9.03396356 47.55164578 -13.87663145 36.70016519 -27.1875 27.3125 C-50.76614008 13.4020889 -84.03891349 18.9013171 -102.125 39.1875 Z " fill="#F97D00" transform="translate(265.125,74.8125)"/>
<path d="M0 0 C14.19 0 28.38 0 43 0 C43 20.13 43 40.26 43 61 C56.53 61 70.06 61 84 61 C84 75.19 84 89.38 84 104 C70.47 104 56.94 104 43 104 C43.05141201 111.78891884 43.11486999 119.57596517 43.20751953 127.36425781 C43.23760751 130.00598261 43.25682406 132.64713084 43.27099609 135.2890625 C43.40884051 159.54967943 44.23996557 183.45196385 61.875 201.96875 C70.4498872 210.1287233 79.17210289 211.18032352 91 213 C91 227.19 91 241.38 91 256 C66.76874879 256 49.93170628 251.95303524 32 236 C31.31421875 235.39671875 30.6284375 234.7934375 29.921875 234.171875 C12.20628037 217.57222334 0.92011894 191.04884483 -0.2722683 166.9011097 C-0.40131411 162.46722702 -0.37231895 158.03496288 -0.34057617 153.59985352 C-0.33972759 151.91293351 -0.34020955 150.22601239 -0.34190369 148.53909302 C-0.34275604 144.00903412 -0.32525511 139.47921894 -0.30418181 134.94921613 C-0.28528664 130.19670207 -0.28365454 125.44418096 -0.28010559 120.69163513 C-0.27082253 111.71413373 -0.24625998 102.73674338 -0.21605712 93.75929064 C-0.18239594 83.52940706 -0.16599778 73.29951787 -0.15097082 63.0695926 C-0.11970661 42.04631953 -0.06474193 21.02319847 0 0 Z " fill="#FC7E00" transform="translate(0,0)"/>
<path d="M0 0 C0 13.53 0 27.06 0 41 C-3.63 40.34 -7.26 39.68 -11 39 C-23.58290139 37.91570188 -35.62260301 39.63069487 -46.00390625 47.25 C-54.4192131 54.62780327 -58.56132751 64.01073162 -60 75 C-60.16243303 78.89313772 -60.17461788 82.78475606 -60.18945312 86.6809082 C-60.19774643 87.85060654 -60.20603973 89.02030487 -60.21458435 90.22544861 C-60.2319518 92.7593941 -60.24712757 95.29335536 -60.26036072 97.82732582 C-60.28141048 101.83130722 -60.30828794 105.83522582 -60.33703613 109.8391571 C-60.40209017 119.05376159 -60.45773596 128.26841823 -60.51302338 137.48308563 C-60.56384936 145.94408068 -60.61665667 154.4050495 -60.67754889 162.8659789 C-60.71051642 167.49220032 -60.73581022 172.1184303 -60.7598877 176.7447052 C-60.7764804 179.15182699 -60.79335131 181.55894689 -60.81054688 183.96606445 C-60.81473129 185.07513153 -60.81891571 186.18419861 -60.82322693 187.32687378 C-60.83574242 188.83047707 -60.83574242 188.83047707 -60.84851074 190.36445618 C-60.85366447 191.24066274 -60.85881821 192.1168693 -60.86412811 193.01962757 C-61 195 -61 195 -62 196 C-64.8843382 196.08865208 -67.74462158 196.11521296 -70.62890625 196.09765625 C-71.92525246 196.09553383 -71.92525246 196.09553383 -73.24778748 196.09336853 C-76.01939292 196.08775239 -78.7909188 196.07519719 -81.5625 196.0625 C-83.4368478 196.05748708 -85.31119685 196.05292381 -87.18554688 196.04882812 C-91.79039544 196.03777772 -96.39518421 196.0205023 -101 196 C-102.5095766 192.98084679 -102.13706379 189.86432484 -102.12698364 186.55308533 C-102.12854363 185.77620709 -102.13010362 184.99932886 -102.13171089 184.19890887 C-102.13571667 181.58172429 -102.13253288 178.96459717 -102.12939453 176.34741211 C-102.13074875 174.4768419 -102.13252879 172.60627195 -102.13470459 170.73570251 C-102.13927618 165.64500045 -102.13749056 160.55431857 -102.1343255 155.46361613 C-102.13180087 150.14693187 -102.1341397 144.83024939 -102.13571167 139.51356506 C-102.1375329 130.58480518 -102.1351281 121.65605355 -102.13037109 112.72729492 C-102.1249269 102.38898874 -102.12669246 92.05070227 -102.1321975 81.71239656 C-102.13672796 72.85126575 -102.13737956 63.9901409 -102.13475883 55.12900931 C-102.1331959 49.82994454 -102.13300276 44.53088905 -102.13629532 39.23182487 C-102.13917312 34.25213887 -102.13720004 29.27247841 -102.13140106 24.29279518 C-102.13007304 22.4597363 -102.13046829 20.62667529 -102.13266373 18.79361725 C-102.13537355 16.30235897 -102.13199621 13.81118392 -102.12698364 11.31993103 C-102.12921436 10.58492794 -102.13144509 9.84992484 -102.13374341 9.09264892 C-102.11414997 4.11414997 -102.11414997 4.11414997 -101 3 C-98.04294679 2.91131701 -95.10934944 2.88479704 -92.15234375 2.90234375 C-90.82270348 2.90446617 -90.82270348 2.90446617 -89.46620178 2.90663147 C-86.62326746 2.91224785 -83.78041069 2.92480309 -80.9375 2.9375 C-79.01497509 2.94251289 -77.09244896 2.94707616 -75.16992188 2.95117188 C-70.44658451 2.96222259 -65.72330542 2.97949817 -61 3 C-60.505 10.425 -60.505 10.425 -60 18 C-59.13375 17.01 -58.2675 16.02 -57.375 15 C-43.01100467 0.8371006 -19.51790666 -4.87947667 0 0 Z " fill="#F77C00" transform="translate(543,58)"/>
<path d="M0 0 C1.19689453 -0.00580078 1.19689453 -0.00580078 2.41796875 -0.01171875 C3.57619141 -0.00978516 3.57619141 -0.00978516 4.7578125 -0.0078125 C5.45277832 -0.00668457 6.14774414 -0.00555664 6.86376953 -0.00439453 C8.875 0.125 8.875 0.125 12.875 1.125 C12.875 14.655 12.875 28.185 12.875 42.125 C9.575 41.465 6.275 40.805 2.875 40.125 C-10.48578043 39.00835557 -22.97191639 40.6253058 -33.90625 49.0390625 C-43.69786016 58.24455515 -46.87891899 71.13317614 -47.50915527 84.15087891 C-47.73063907 91.33931651 -47.73203203 98.52753429 -47.734375 105.71875 C-47.74938017 108.36391853 -47.76592138 111.00903344 -47.78448486 113.6541748 C-47.82473362 119.86205903 -47.8453114 126.06983908 -47.85845876 132.27783346 C-47.8744356 139.35675954 -47.91289478 146.43551094 -47.95305204 153.51433468 C-48.0350239 168.05117354 -48.08641556 182.58797923 -48.125 197.125 C-61.325 197.125 -74.525 197.125 -88.125 197.125 C-88.125 133.435 -88.125 69.745 -88.125 4.125 C-74.925 4.125 -61.725 4.125 -48.125 4.125 C-47.63 11.55 -47.63 11.55 -47.125 19.125 C-45.84625 17.92875 -44.5675 16.7325 -43.25 15.5 C-30.76559243 4.49349737 -16.51882037 -0.08084251 0 0 Z " fill="#FC7E00" transform="translate(407.125,56.875)"/>
</svg>
