<?xml version="1.0" standalone="no"?>
<!DOCTYPE svg PUBLIC "-//W3C//DTD SVG 20010904//EN"
 "http://www.w3.org/TR/2001/REC-SVG-20010904/DTD/svg10.dtd">
<svg version="1.0" xmlns="http://www.w3.org/2000/svg"
 width="4096.000000pt" height="819.000000pt" viewBox="0 0 4096.000000 819.000000"
 preserveAspectRatio="xMidYMid meet">

<g transform="translate(0.000000,819.000000) scale(0.100000,-0.100000)"
fill="#000000" stroke="none">
<path d="M8505 8183 c-277 -33 -449 -83 -663 -193 -381 -195 -685 -547 -816
-945 -64 -196 -67 -224 -76 -690 -5 -236 -9 -1394 -9 -2572 l-1 -2143 725 0
725 0 0 1600 0 1600 771 0 c729 0 770 -1 765 -17 -3 -10 -14 -70 -25 -133 -68
-396 -50 -888 44 -1259 261 -1032 1041 -1693 2103 -1782 181 -15 508 -6 677
20 966 147 1656 768 1895 1706 146 572 127 1224 -52 1743 -122 355 -299 645
-547 893 -265 264 -533 428 -901 549 -278 92 -496 124 -835 124 -272 -1 -423
-19 -657 -78 -318 -80 -625 -231 -883 -434 -109 -86 -304 -286 -387 -398 -174
-235 -304 -498 -393 -799 l-24 -80 0 543 -1 542 -775 0 -775 0 0 295 c0 176 4
315 11 347 39 187 187 335 394 395 53 15 130 17 703 21 l642 3 0 575 0 574
-802 -1 c-442 -1 -816 -4 -833 -6z m3980 -2678 c396 -69 669 -387 764 -890 40
-210 50 -428 30 -662 -47 -570 -289 -970 -664 -1098 -141 -48 -378 -61 -530
-30 -406 84 -670 410 -768 950 -30 164 -32 601 -4 767 94 557 364 886 790 963
99 18 277 18 382 0z"/>
<path d="M0 4845 l0 -3205 695 0 695 0 0 3205 0 3205 -695 0 -695 0 0 -3205z"/>
<path d="M15130 4845 l0 -3205 740 0 740 0 1 1873 1 1872 90 -185 c49 -102
240 -534 423 -960 184 -426 432 -1002 553 -1280 l218 -505 510 -3 509 -2 144
332 c79 183 304 707 501 1163 196 457 418 968 491 1138 l134 307 3 -1875 2
-1875 735 0 735 0 0 3205 0 3205 -732 0 -733 0 -182 -353 c-385 -747 -769
-1584 -1309 -2849 -142 -334 -261 -607 -264 -608 -3 0 -135 303 -294 673 -423
982 -630 1445 -931 2077 -118 248 -432 873 -495 988 l-41 72 -774 0 -775 0 0
-3205z"/>
<path d="M3895 6683 c-525 -18 -1235 -121 -1717 -250 l-98 -26 0 -2383 0
-2384 710 0 710 0 0 1904 0 1904 33 6 c49 10 326 34 472 41 333 16 570 -48
716 -194 132 -132 206 -352 239 -706 6 -69 10 -645 10 -1532 l0 -1423 710 0
710 0 0 1428 c0 1656 -4 1774 -76 2132 -119 596 -401 1000 -864 1239 -389 200
-828 269 -1555 244z"/>
<path d="M24130 6679 c-592 -52 -1125 -299 -1516 -700 -284 -293 -489 -674
-595 -1104 -87 -356 -103 -795 -43 -1205 61 -417 252 -862 505 -1181 311 -391
765 -670 1271 -783 231 -52 312 -60 623 -60 250 0 309 3 430 22 527 83 956
293 1300 637 288 287 479 632 595 1070 125 471 129 1069 10 1534 -247 976
-973 1622 -1974 1757 -138 18 -466 26 -606 13z m499 -1188 c255 -67 444 -227
574 -486 157 -313 207 -800 131 -1255 -58 -340 -220 -636 -429 -785 -156 -111
-313 -156 -539 -156 -335 0 -584 133 -762 406 -153 235 -222 499 -231 887 -10
387 40 663 162 902 142 279 358 447 644 501 114 21 342 14 450 -14z"/>
<path d="M28795 6679 c-348 -17 -736 -63 -1112 -134 -208 -39 -458 -94 -546
-120 l-57 -16 0 -2385 0 -2384 705 0 705 0 0 1905 c0 1048 1 1905 3 1905 1 0
54 7 118 15 63 8 203 19 310 25 746 43 989 -187 1039 -985 6 -93 10 -722 10
-1512 l0 -1353 705 0 705 0 0 1463 c0 1450 -4 1632 -35 1874 -85 646 -326
1091 -740 1368 -414 277 -946 375 -1810 334z"/>
<path d="M33640 6679 c-1124 -111 -1938 -931 -2095 -2109 -9 -63 -18 -214 -22
-335 -28 -1006 327 -1772 1020 -2202 177 -109 424 -218 632 -278 421 -121 972
-147 1570 -74 295 36 578 91 773 151 l102 31 0 588 0 587 -74 -28 c-215 -83
-587 -160 -911 -190 -169 -15 -525 -12 -662 5 -379 50 -681 204 -859 438 -84
110 -174 335 -174 435 l0 22 1564 0 1564 0 6 28 c15 76 28 446 23 617 -21 620
-152 1087 -409 1462 -323 470 -815 754 -1453 838 -148 19 -467 27 -595 14z
m476 -1139 c199 -47 372 -169 489 -345 75 -114 138 -306 151 -466 l7 -79 -912
0 c-607 0 -911 3 -911 10 0 27 44 205 70 282 57 170 131 289 248 400 122 115
290 194 462 217 105 14 299 5 396 -19z"/>
<path d="M35965 6538 c2 -7 40 -128 84 -268 439 -1401 1056 -2934 1651 -4096
l138 -271 -43 -87 c-141 -281 -389 -493 -690 -591 -146 -47 -230 -55 -602 -55
l-343 0 0 -585 0 -585 419 0 c515 0 643 10 886 72 314 79 613 239 865 460 448
395 946 1242 1453 2475 374 907 814 2219 1117 3323 28 102 53 193 56 203 5 16
-34 17 -725 17 l-730 0 -20 -67 c-487 -1667 -865 -2904 -944 -3092 -12 -28
-15 -30 -21 -15 -21 51 -267 735 -351 975 -359 1017 -599 1755 -681 2087 l-27
112 -748 0 c-594 0 -747 -3 -744 -12z"/>
</g>
</svg>
