<?xml version="1.0" standalone="no"?>
<!DOCTYPE svg PUBLIC "-//W3C//DTD SVG 20010904//EN"
 "http://www.w3.org/TR/2001/REC-SVG-20010904/DTD/svg10.dtd">
<svg version="1.0" xmlns="http://www.w3.org/2000/svg"
 width="3840.000000pt" height="1316.000000pt" viewBox="0 0 3840.000000 1316.000000"
 preserveAspectRatio="xMidYMid meet">

<g transform="translate(0.000000,1316.000000) scale(0.100000,-0.100000)"
fill="#000000" stroke="none">
<path d="M27845 12984 c-72 -97 -131 -180 -133 -185 -2 -5 24 -9 58 -9 l61 0
121 100 c67 55 124 100 128 100 3 0 60 -50 127 -110 l122 -111 61 3 61 3 -137
193 -137 192 -101 0 -101 0 -130 -176z"/>
<path d="M23815 12700 c-257 -54 -433 -266 -492 -594 -26 -143 -23 -449 6
-586 62 -293 214 -476 444 -537 76 -20 240 -22 317 -4 163 40 294 146 368 301
38 80 78 197 70 205 -2 2 -58 17 -126 33 l-122 29 -11 -41 c-35 -137 -64 -200
-120 -261 -59 -63 -124 -88 -219 -83 -164 10 -260 110 -316 328 -27 107 -28
547 -1 661 51 219 163 331 332 331 160 0 259 -91 309 -286 9 -32 18 -61 20
-63 6 -6 228 58 240 68 13 12 -38 161 -81 239 -72 128 -192 217 -332 245 -88
18 -236 26 -286 15z"/>
<path d="M25110 12695 c-107 -24 -186 -69 -270 -154 -90 -91 -147 -196 -186
-347 -24 -88 -27 -124 -31 -316 -4 -174 -2 -237 11 -318 33 -193 96 -330 200
-434 110 -110 237 -159 411 -159 174 0 301 49 411 159 102 102 166 239 198
425 21 121 22 420 1 544 -52 322 -220 533 -466 589 -102 23 -206 27 -279 11z
m267 -246 c99 -47 165 -152 200 -319 25 -121 26 -488 0 -610 -37 -178 -127
-309 -239 -346 -66 -22 -177 -15 -233 14 -93 47 -164 161 -195 312 -37 181
-34 533 6 685 35 135 111 245 191 276 88 34 181 30 270 -12z"/>
<path d="M27943 12695 c-186 -41 -342 -187 -419 -391 -83 -219 -98 -599 -33
-852 43 -168 147 -324 269 -402 142 -91 363 -111 538 -50 288 101 443 443 417
915 -11 203 -49 352 -121 484 -50 89 -160 197 -245 238 -119 59 -294 84 -406
58z m253 -235 c98 -42 175 -154 211 -307 26 -113 26 -542 0 -654 -35 -150
-109 -264 -202 -312 -50 -25 -167 -35 -221 -17 -139 45 -223 183 -254 416 -17
121 -8 472 14 568 32 142 103 253 190 298 75 38 184 42 262 8z"/>
<path d="M32110 12694 c-243 -52 -408 -245 -469 -549 -38 -192 -36 -487 4
-663 62 -266 224 -450 445 -503 75 -18 231 -16 307 4 133 35 226 99 303 209
45 64 99 190 113 264 l6 31 -112 27 c-62 14 -117 26 -123 26 -6 0 -19 -30 -29
-67 -43 -157 -133 -276 -230 -303 -61 -17 -169 -9 -220 18 -96 49 -168 164
-200 317 -10 47 -19 150 -22 250 -13 402 56 619 223 701 78 38 181 38 254 -2
29 -16 63 -42 76 -59 36 -47 74 -137 86 -205 6 -33 16 -60 21 -60 7 0 91 23
239 66 15 5 15 10 -3 74 -73 266 -222 396 -491 430 -98 12 -96 12 -178 -6z"/>
<path d="M33413 12695 c-212 -47 -374 -216 -446 -465 -65 -225 -63 -609 4
-825 70 -227 218 -377 419 -426 77 -19 241 -16 320 5 161 43 286 149 364 307
59 121 83 218 97 395 19 232 -7 456 -71 627 -30 80 -111 197 -172 251 -125
110 -352 167 -515 131z m244 -231 c94 -34 184 -165 219 -319 22 -97 31 -438
14 -558 -39 -293 -161 -437 -358 -425 -82 5 -133 28 -189 86 -83 85 -127 214
-145 431 -20 248 13 511 80 634 80 147 226 205 379 151z"/>
<path d="M20505 12653 c-145 -11 -531 -16 -1633 -21 -1413 -7 -1444 -7 -1458
-26 -21 -29 -20 -273 2 -304 l15 -22 670 0 c443 0 677 -4 690 -10 19 -11 19
-87 19 -5879 0 -5084 -2 -5870 -14 -5880 -11 -9 -166 -11 -638 -8 -586 4 -629
5 -718 25 -360 79 -543 251 -631 595 -55 217 -52 84 -59 2642 -7 2493 -5 2425
-51 2745 -143 1019 -579 1652 -1377 2002 -389 171 -854 274 -1467 328 -60 5
-251 15 -423 21 -946 37 -1764 -113 -2397 -440 -576 -296 -912 -699 -1026
-1231 -19 -89 -23 -135 -23 -300 0 -184 1 -200 27 -283 111 -358 385 -594 784
-674 135 -27 433 -24 571 5 225 49 360 118 492 251 134 135 204 281 235 488
20 130 19 268 -5 628 -26 400 -27 646 -1 747 28 109 64 174 140 249 76 76 166
126 293 163 141 40 245 51 498 51 250 -1 352 -10 540 -52 532 -117 851 -443
983 -1008 65 -278 79 -493 75 -1170 l-3 -530 -29 -53 c-29 -51 -84 -101 -151
-135 -169 -86 -1248 -362 -1978 -506 -736 -146 -1209 -291 -1652 -509 -809
-398 -1235 -929 -1347 -1677 -17 -119 -18 -577 0 -700 90 -626 348 -1113 782
-1477 526 -441 1265 -678 2120 -679 486 -1 868 83 1265 276 391 191 740 510
929 848 39 70 53 87 71 87 21 0 25 -7 35 -58 30 -153 99 -317 187 -441 176
-249 490 -433 884 -516 301 -63 44 -59 3463 -62 2323 -3 3112 -1 3122 8 19 15
20 319 2 337 -9 9 -178 12 -700 12 -675 0 -688 0 -708 20 -20 20 -20 33 -20
6066 l0 6045 -35 15 c-40 17 -93 16 -350 -3z m-5865 -8882 c0 -1621 1 -1585
-59 -1836 -169 -699 -653 -1217 -1281 -1374 -201 -50 -499 -67 -644 -36 -302
64 -547 282 -716 637 -116 244 -188 531 -232 918 -17 149 -17 784 0 980 84
964 358 1404 1042 1673 150 58 247 86 520 147 472 106 935 230 1195 319 77 26
148 49 158 49 16 2 17 -75 17 -1477z"/>
<path d="M22200 11825 l0 -835 535 0 535 0 0 100 0 100 -400 0 -400 0 0 285 0
285 310 0 310 0 0 100 0 100 -315 0 -315 0 0 250 0 250 395 0 395 0 0 100 0
100 -525 0 -525 0 0 -835z"/>
<path d="M26070 11825 l0 -835 125 0 125 0 2 629 3 628 325 -628 325 -629 138
0 137 0 -2 833 -3 832 -117 3 -118 3 0 -610 c0 -344 -4 -612 -9 -615 -5 -3
-13 0 -18 7 -6 6 -149 283 -318 615 l-308 602 -143 0 -144 0 0 -835z"/>
<path d="M28910 11825 l0 -835 115 0 115 0 0 696 c0 513 3 695 11 692 7 -2
109 -320 228 -706 l216 -702 139 2 139 3 216 697 c178 575 219 698 234 698 16
0 17 -39 17 -690 l0 -690 125 0 125 0 0 835 0 835 -219 0 -219 0 -19 -62 c-10
-35 -100 -339 -198 -675 -99 -337 -184 -613 -190 -613 -5 0 -102 303 -215 673
l-205 672 -207 3 -208 2 0 -835z"/>
<path d="M30780 12610 l0 -50 115 0 115 0 0 -730 0 -730 -115 0 -115 0 0 -55
0 -55 365 0 365 0 0 55 0 55 -120 0 -120 0 0 730 0 730 120 0 120 0 0 50 0 50
-365 0 -365 0 0 -50z"/>
<path d="M9 12616 c-14 -15 -12 -309 3 -324 9 -9 159 -12 613 -12 682 0 649 4
692 -81 12 -24 1062 -2742 2333 -6039 1551 -4023 2318 -6001 2332 -6013 18
-16 41 -17 206 -15 184 3 185 3 203 28 10 14 1007 2691 2215 5950 1208 3259
2207 5948 2220 5976 30 65 85 121 143 148 45 21 59 21 626 24 576 2 580 2 598
23 24 30 26 299 1 323 -14 14 -171 16 -1577 16 -1398 0 -1565 -2 -1585 -16
-21 -14 -22 -22 -22 -148 0 -113 3 -137 18 -155 17 -21 20 -21 652 -23 l635
-3 48 -24 c33 -16 54 -34 64 -57 39 -81 109 112 -1619 -4529 -1492 -4011
-1606 -4310 -1627 -4310 -21 0 -134 302 -1648 4400 -1300 3518 -1626 4410
-1627 4450 -1 43 2 51 24 62 20 10 168 13 681 13 623 0 657 1 672 18 14 15 17
42 17 155 0 132 -1 137 -23 152 -21 13 -320 15 -2641 17 -1643 2 -2621 -1
-2627 -6z"/>
<path d="M26080 8844 c-19 -2 -91 -9 -160 -14 -805 -68 -1580 -357 -2185 -813
-365 -276 -695 -637 -943 -1029 -375 -596 -594 -1275 -674 -2088 -17 -180 -17
-839 0 -1015 64 -639 209 -1173 453 -1670 197 -401 430 -728 749 -1045 675
-675 1597 -1077 2661 -1161 207 -16 841 -7 1024 15 553 67 1064 215 1508 437
152 77 245 131 417 245 904 597 1497 1538 1710 2711 106 587 110 1301 10 1898
-311 1855 -1542 3130 -3341 3459 -285 52 -468 68 -844 71 -192 2 -366 1 -385
-1z m620 -358 c307 -42 595 -140 765 -261 76 -54 206 -188 277 -285 378 -518
587 -1418 648 -2790 13 -290 13 -1221 0 -1505 -52 -1142 -203 -1932 -472
-2457 -154 -301 -384 -550 -618 -667 -180 -90 -462 -159 -737 -182 -443 -35
-961 90 -1240 300 -477 359 -764 1182 -867 2481 -33 411 -40 646 -40 1255 0
608 7 845 39 1260 103 1311 386 2149 854 2525 225 181 536 286 963 325 192 17
303 17 428 1z"/>
<path d="M36450 8834 c-872 -105 -1590 -618 -2064 -1474 -45 -81 -106 -203
-136 -273 -51 -119 -57 -127 -82 -127 l-28 0 0 878 c0 778 -2 880 -16 900 -14
20 -23 22 -117 22 -56 0 -201 -8 -322 -17 -182 -13 -455 -17 -1585 -20 -946
-3 -1368 -7 -1377 -15 -19 -15 -18 -311 0 -327 10 -8 213 -12 698 -13 l684 -3
3 -3908 c1 -2683 -1 -3914 -8 -3928 -10 -18 -28 -19 -690 -19 -421 0 -689 -4
-705 -10 l-25 -10 2 -162 3 -163 2459 -3 c1809 -1 2462 1 2472 9 19 15 20 319
2 337 -9 9 -177 12 -696 12 -452 0 -690 4 -703 10 -19 11 -19 47 -19 2328 0
2237 2 2459 31 2737 63 630 231 1208 459 1580 54 88 232 333 348 480 114 143
387 419 492 497 224 166 455 243 622 209 74 -16 118 -46 146 -101 21 -40 22
-54 17 -120 -4 -41 -24 -169 -46 -285 -57 -304 -69 -390 -75 -580 -23 -636
239 -1023 767 -1136 87 -19 135 -22 294 -22 688 0 1029 267 1119 875 47 315
22 651 -69 925 -107 321 -316 572 -610 733 -167 90 -394 157 -630 185 -159 18
-457 18 -615 -1z"/>
</g>
</svg>
