<?xml version="1.0" standalone="no"?>
<!DOCTYPE svg PUBLIC "-//W3C//DTD SVG 20010904//EN"
 "http://www.w3.org/TR/2001/REC-SVG-20010904/DTD/svg10.dtd">
<svg version="1.0" xmlns="http://www.w3.org/2000/svg"
 width="520.000000pt" height="120.000000pt" viewBox="0 0 520.000000 120.000000"
 preserveAspectRatio="xMidYMid meet">

<g transform="translate(0.000000,120.000000) scale(0.100000,-0.100000)"
fill="#000000" stroke="none">
<path d="M4125 1096 c-16 -8 -43 -27 -59 -44 l-28 -30 26 -17 c23 -15 27 -15
48 -1 30 21 57 20 113 -4 85 -36 168 -18 209 45 15 23 15 25 -8 40 -23 16 -27
15 -54 -5 l-30 -22 -79 26 c-89 30 -97 30 -138 12z"/>
<path d="M355 1050 c10 -11 20 -20 23 -20 3 0 -3 9 -13 20 -10 11 -20 20 -23
20 -3 0 3 -9 13 -20z"/>
<path d="M390 1066 c0 -2 8 -10 18 -17 15 -13 16 -12 3 4 -13 16 -21 21 -21
13z"/>
<path d="M480 1051 c0 -5 5 -13 10 -16 6 -3 10 -2 10 4 0 5 -4 13 -10 16 -5 3
-10 2 -10 -4z"/>
<path d="M533 1012 c-20 -24 -22 -25 -23 -7 0 17 -2 18 -10 5 -9 -13 -12 -13
-21 2 -8 15 -13 16 -29 6 -15 -10 -22 -10 -32 0 -6 6 -17 12 -22 12 -6 0 0 -7
12 -16 13 -9 29 -13 37 -10 9 3 15 0 15 -8 0 -7 7 -20 16 -27 11 -9 14 -23 11
-45 -3 -17 -1 -36 5 -42 25 -25 -50 -89 -89 -76 -10 3 -14 2 -8 -3 18 -14 17
-37 -1 -50 -16 -11 -21 -10 -39 11 l-20 25 -70 -32 c-84 -38 -87 -41 -103 -93
-19 -67 -13 -142 11 -127 6 3 7 1 3 -5 -9 -14 -71 -32 -112 -32 -18 0 -34 -6
-37 -13 -2 -7 2 -41 9 -77 7 -36 14 -77 14 -92 0 -28 29 -98 40 -98 4 0 12 11
18 24 9 20 7 29 -14 57 -19 27 -24 45 -24 95 0 71 7 77 83 74 78 -5 97 -1 97
18 0 9 12 25 25 35 27 19 35 8 10 -13 -8 -7 -15 -17 -15 -23 0 -6 -7 -18 -16
-28 -14 -15 -13 -24 10 -90 38 -113 43 -177 17 -228 l-21 -41 28 0 c25 0 31 6
42 39 10 33 10 46 0 71 -9 22 -11 52 -6 103 4 40 8 80 9 90 1 9 2 17 3 17 0 0
15 -5 33 -11 21 -7 36 -8 44 -1 6 5 42 15 78 21 37 6 84 17 105 25 l39 13 17
-44 c21 -55 13 -83 -40 -155 -40 -55 -51 -102 -33 -149 6 -17 7 -17 30 0 18
14 21 22 14 36 -25 44 32 155 79 155 11 0 18 7 18 18 0 10 7 27 15 40 14 19
14 24 1 44 -7 13 -17 34 -21 48 -4 14 -14 33 -23 43 -8 9 -11 17 -5 17 15 0
40 -32 47 -62 6 -28 53 -80 100 -112 56 -37 79 -158 37 -197 -28 -26 -27 -49
2 -49 34 1 56 60 50 136 -3 35 -1 70 6 82 8 15 7 23 -4 32 -19 16 -20 34 -1
27 11 -4 13 3 9 32 -3 22 3 65 16 108 12 38 21 85 21 102 0 43 -47 91 -88 91
-16 0 -47 7 -68 16 -28 12 -55 14 -104 10 -36 -3 -75 -6 -87 -6 l-21 0 20 -49
c12 -27 19 -55 15 -63 -3 -8 -29 -24 -59 -35 -29 -12 -60 -24 -68 -27 -11 -5
-19 3 -27 24 -10 27 -15 30 -31 21 -16 -8 -20 -25 -25 -91 -3 -45 -8 -84 -11
-87 -3 -3 -17 -3 -31 1 -25 6 -25 8 -25 100 0 83 4 102 30 160 16 36 31 66 34
66 2 0 21 -41 42 -90 41 -100 34 -97 122 -59 48 21 49 26 11 102 -19 35 -41
47 -53 28 -7 -11 -24 -9 -54 8 -23 12 -23 13 21 41 24 15 54 43 65 62 28 46
29 103 2 118 -19 10 -19 13 -5 40 19 37 19 40 -2 39 -10 0 -28 -12 -40 -27z
m375 -367 c16 -34 15 -74 -3 -105 -13 -24 -13 -22 -12 30 1 30 -2 65 -6 78
-11 31 7 28 21 -3z"/>
<path d="M360 962 c0 -44 14 -62 49 -62 l24 0 -24 -27 c-15 -18 -11 -16 14 6
20 19 37 31 38 25 0 -5 5 2 10 15 10 27 -1 41 -33 41 -10 0 -18 6 -18 14 0 12
-28 25 -52 26 -5 0 -8 -17 -8 -38z"/>
<path d="M128 954 c-3 -2 -23 -5 -46 -6 -52 -2 -57 -15 -36 -93 9 -33 22 -80
29 -104 14 -52 37 -69 71 -50 19 10 24 21 24 53 1 23 8 52 16 66 11 17 13 19
9 5 -4 -11 -9 -34 -12 -52 -5 -32 -5 -32 23 -24 39 11 124 53 124 61 0 18 -63
98 -92 116 -31 20 -101 38 -110 28z"/>
<path d="M1893 920 c-124 -25 -194 -109 -195 -234 -2 -114 43 -173 177 -231
129 -55 163 -76 172 -103 19 -60 -14 -107 -82 -117 -54 -8 -102 18 -129 70
-12 22 -22 42 -23 44 -3 5 -136 -30 -146 -39 -13 -11 53 -129 87 -155 77 -58
175 -77 276 -51 127 32 200 119 200 237 0 128 -53 189 -225 258 -128 51 -153
76 -133 134 13 35 36 47 88 47 42 0 78 -25 105 -74 10 -18 13 -18 74 4 35 13
65 29 68 36 6 17 -30 84 -64 116 -53 51 -161 76 -250 58z"/>
<path d="M4823 920 c-163 -34 -233 -158 -233 -413 0 -178 35 -285 114 -355 47
-41 98 -57 186 -56 64 0 83 4 128 28 91 51 132 127 154 286 24 180 -18 363
-100 443 -61 60 -158 85 -249 67z m120 -158 c32 -28 47 -107 47 -251 0 -75 -5
-154 -10 -175 -27 -119 -136 -141 -184 -37 -18 41 -21 65 -21 206 0 189 15
247 69 270 35 15 72 10 99 -13z"/>
<path d="M2338 903 l-98 -4 0 -69 0 -70 80 0 80 0 0 -330 0 -330 90 0 90 0 0
330 0 330 80 0 80 0 0 75 0 75 -152 -2 c-84 -1 -197 -4 -250 -5z"/>
<path d="M2931 901 l-34 -6 -119 -390 c-65 -214 -118 -393 -118 -397 0 -5 34
-8 75 -8 l74 0 11 40 c5 22 15 58 20 80 l11 40 118 0 119 0 19 -77 19 -78 91
-3 90 -3 -116 406 -116 405 -55 -1 c-30 -1 -70 -4 -89 -8z m80 -334 c21 -83
38 -155 39 -159 0 -5 -36 -8 -80 -8 -44 0 -80 3 -80 8 0 20 74 321 79 317 2
-3 22 -74 42 -158z"/>
<path d="M4196 901 l-40 -6 -118 -390 c-65 -214 -118 -394 -118 -398 0 -4 37
-7 82 -5 l82 3 19 78 19 77 118 0 118 0 20 -76 c12 -42 23 -78 25 -81 3 -2 43
-3 89 -1 l85 3 -115 403 -115 402 -56 -1 c-31 -1 -74 -5 -95 -8z m87 -333 c21
-84 37 -156 37 -160 0 -5 -37 -8 -81 -8 -79 0 -81 1 -75 23 3 12 20 84 38 160
17 75 34 137 38 137 3 0 22 -69 43 -152z"/>
<path d="M1140 500 l0 -400 250 0 250 0 0 70 0 70 -160 0 -160 0 0 100 0 100
120 0 120 0 0 70 0 70 -120 0 -120 0 0 90 0 90 160 0 160 0 0 70 0 70 -250 0
-250 0 0 -400z"/>
<path d="M3370 773 c0 -71 -3 -252 -7 -402 l-6 -273 169 5 c93 2 186 10 208
16 56 18 129 91 160 160 79 177 46 450 -67 546 -64 55 -112 67 -294 72 l-163
6 0 -130z m311 -39 c11 -10 31 -37 43 -59 19 -35 21 -56 21 -175 -1 -147 -10
-183 -59 -229 -20 -19 -40 -26 -86 -29 l-60 -4 0 262 0 262 60 -4 c40 -3 66
-10 81 -24z"/>
</g>
</svg>
