<?xml version="1.0" standalone="no"?>
<!DOCTYPE svg PUBLIC "-//W3C//DTD SVG 20010904//EN"
 "http://www.w3.org/TR/2001/REC-SVG-20010904/DTD/svg10.dtd">
<svg version="1.0" xmlns="http://www.w3.org/2000/svg"
 width="1024.000000pt" height="167.000000pt" viewBox="0 0 1024.000000 167.000000"
 preserveAspectRatio="xMidYMid meet">

<g transform="translate(0.000000,167.000000) scale(0.100000,-0.100000)"
fill="#000000" stroke="none">
<path d="M8994 1655 c-98 -17 -135 -30 -234 -81 -207 -106 -370 -312 -427
-540 -23 -92 -23 -293 0 -386 63 -255 235 -454 479 -551 117 -47 192 -60 338
-60 144 1 263 24 378 73 55 24 71 47 25 35 -195 -49 -322 -22 -443 91 -79 75
-138 182 -170 309 -21 82 -46 334 -36 360 5 13 73 15 476 15 l470 0 0 65 c0
128 -45 282 -115 390 -139 218 -445 334 -741 280z m176 -122 c39 -27 58 -54
81 -113 29 -77 47 -194 51 -335 l3 -120 -205 0 -205 0 2 85 c6 215 49 394 112
460 34 36 43 40 87 40 31 0 59 -7 74 -17z"/>
<path d="M710 1630 c-261 -34 -500 -209 -624 -456 -124 -250 -106 -568 45
-800 210 -321 630 -451 1026 -319 82 28 246 110 265 132 21 25 0 24 -53 -3
-294 -149 -551 -81 -679 180 -60 121 -81 216 -87 384 l-6 142 471 0 c307 0
473 4 477 10 10 16 -15 198 -37 269 -81 263 -280 424 -568 460 -92 12 -146 12
-230 1z m180 -95 c38 -20 78 -89 101 -176 19 -74 46 -357 36 -383 -6 -14 -31
-16 -209 -14 l-203 3 3 95 c7 214 50 386 113 452 32 33 42 38 83 38 26 0 60
-7 76 -15z"/>
<path d="M4405 1634 c-68 -9 -193 -37 -206 -45 -20 -13 6 -29 48 -29 49 0 135
-36 173 -73 87 -85 109 -155 120 -377 5 -96 6 -178 4 -182 -3 -4 -19 -10 -37
-12 -18 -3 -77 -13 -132 -21 -325 -52 -533 -132 -656 -255 -89 -88 -113 -148
-112 -280 0 -115 20 -167 88 -236 55 -55 128 -90 231 -111 211 -43 495 77 595
251 17 31 30 44 32 36 3 -8 12 -40 21 -71 9 -31 32 -77 51 -102 111 -145 428
-167 613 -42 53 36 147 150 136 166 -2 5 -22 0 -42 -11 -80 -43 -165 -15 -208
70 -23 45 -23 48 -24 450 0 224 -5 434 -10 470 -37 234 -256 391 -561 404 -52
3 -107 2 -124 0z m129 -776 c3 -13 6 -122 6 -244 0 -251 -9 -299 -62 -351 -80
-77 -183 -81 -263 -12 -61 54 -78 151 -50 282 35 165 142 281 309 333 55 17
53 17 60 -8z"/>
<path d="M6676 1629 c-90 -15 -169 -52 -310 -146 -76 -51 -140 -93 -142 -93
-2 0 -4 54 -4 120 0 99 -3 120 -15 120 -8 0 -88 -18 -177 -39 -90 -21 -245
-58 -346 -82 -100 -24 -181 -47 -179 -52 1 -5 21 -15 42 -23 52 -17 111 -80
125 -133 8 -29 10 -200 8 -559 l-3 -517 -24 -48 c-25 -52 -63 -81 -117 -92
-19 -3 -32 -10 -29 -16 8 -12 845 -12 845 0 0 5 -20 14 -45 20 -84 21 -80 -14
-83 649 -2 467 0 587 10 600 21 25 145 80 197 87 63 9 114 -12 138 -57 17 -31
18 -72 18 -618 0 -662 3 -638 -75 -661 -22 -7 -40 -16 -40 -21 0 -10 777 -11
784 0 3 5 -15 13 -39 20 -84 22 -79 -12 -85 652 -6 672 -17 599 100 653 82 38
175 43 210 12 50 -44 50 -45 50 -657 0 -653 3 -629 -78 -658 -23 -9 -39 -19
-36 -23 10 -10 784 -9 784 1 0 4 -20 13 -45 20 -27 7 -49 20 -57 34 -10 18
-14 157 -18 613 -6 572 -6 592 -27 655 -55 163 -172 242 -358 242 -138 0 -240
-43 -437 -184 -54 -39 -100 -69 -102 -67 -2 2 -15 29 -30 60 -30 65 -98 132
-159 159 -40 18 -154 41 -187 39 -8 -1 -37 -5 -64 -10z"/>
<path d="M1560 1601 c0 -5 21 -12 48 -16 65 -9 102 -28 149 -78 22 -23 154
-210 293 -415 l252 -373 -18 -27 c-9 -15 -51 -74 -92 -132 -252 -352 -407
-480 -606 -499 -34 -4 -61 -11 -64 -18 -3 -10 77 -13 377 -13 242 0 381 4 381
10 0 5 -11 12 -25 15 -14 3 -37 8 -52 11 -83 17 -141 97 -129 180 3 24 20 72
37 106 34 68 200 328 210 328 8 0 292 -417 318 -467 40 -79 19 -140 -54 -152
-21 -3 -40 -12 -43 -19 -3 -9 99 -12 483 -12 382 0 486 3 483 12 -3 7 -24 16
-47 20 -57 10 -118 46 -168 101 -30 33 -534 772 -551 808 -3 7 107 165 211
304 84 111 212 237 272 268 28 14 79 31 113 37 34 7 62 17 62 21 0 5 -130 9
-290 9 -273 0 -351 -8 -247 -25 160 -27 149 -135 -49 -438 -49 -75 -91 -137
-95 -137 -7 0 -242 355 -263 397 -20 40 -21 112 -1 140 9 12 36 27 65 34 27 7
50 16 50 21 0 4 -227 8 -505 8 -287 0 -505 -4 -505 -9z"/>
<path d="M3901 1506 c-131 -47 -189 -201 -123 -327 86 -165 335 -156 413 15
37 81 12 204 -52 263 -61 55 -162 77 -238 49z"/>
<path d="M9932 451 c-29 -10 -67 -31 -84 -47 -89 -84 -94 -239 -10 -327 123
-130 339 -80 388 89 37 127 -31 251 -158 289 -64 19 -71 19 -136 -4z"/>
</g>
</svg>
