<?xml version="1.0" standalone="no"?>
<!DOCTYPE svg PUBLIC "-//W3C//DTD SVG 20010904//EN"
 "http://www.w3.org/TR/2001/REC-SVG-20010904/DTD/svg10.dtd">
<svg version="1.0" xmlns="http://www.w3.org/2000/svg"
 width="4150.000000pt" height="1024.000000pt" viewBox="0 0 4150.000000 1024.000000"
 preserveAspectRatio="xMidYMid meet">

<g transform="translate(0.000000,1024.000000) scale(0.100000,-0.100000)"
fill="#000000" stroke="none">
<path d="M9655 10173 c-20 -38 -559 -1089 -1198 -2337 -639 -1247 -1166 -2268
-1171 -2268 -5 0 -259 480 -565 1067 l-555 1066 -42 -83 c-269 -527 -1062
-2050 -1069 -2050 -5 0 -261 480 -569 1067 l-560 1067 -57 -113 c-31 -63 -912
-1792 -1958 -3843 -1046 -2051 -1901 -3730 -1901 -3732 0 -2 685 -4 1523 -4
l1522 0 785 1562 c432 859 785 1569 785 1577 0 16 -391 747 -404 755 -3 2
-373 -716 -821 -1595 l-815 -1599 -693 0 c-564 0 -693 2 -690 13 9 37 2723
5386 2729 5380 6 -6 2081 -4020 2210 -4276 l25 -47 2167 4223 c1192 2322 2167
4226 2167 4230 0 4 -182 7 -404 7 l-405 0 -36 -67z m-3131 -4751 l348 -672
-347 -683 c-191 -375 -351 -685 -354 -690 -4 -4 -166 303 -359 682 l-352 690
352 681 c193 374 355 677 358 673 4 -5 164 -311 354 -681z"/>
<path d="M9016 5692 l-199 -399 1161 -2274 c639 -1251 1164 -2282 1168 -2291
6 -17 -32 -18 -702 -18 l-709 1 -815 1599 c-448 880 -817 1597 -821 1592 -4
-4 -96 -175 -204 -380 l-197 -372 794 -1570 793 -1570 1528 0 c840 0 1527 2
1527 3 0 11 -3111 6072 -3118 6075 -4 1 -97 -177 -206 -396z"/>
<path d="M15110 3766 l0 -1676 360 0 360 0 0 891 c0 490 4 889 8 887 5 -1 214
-181 465 -398 252 -217 463 -396 470 -397 6 -1 224 179 482 401 l470 403 3
-894 2 -893 355 0 355 0 0 1675 c0 921 -2 1675 -5 1675 -3 0 -373 -319 -823
-708 -450 -390 -823 -712 -830 -716 -7 -4 -339 277 -829 702 -450 389 -824
711 -830 716 -10 6 -13 -331 -13 -1668z"/>
<path d="M21628 5425 c-553 -76 -1040 -428 -1283 -928 -56 -116 -117 -302
-141 -432 -29 -151 -26 -491 4 -632 34 -155 76 -275 147 -418 232 -464 647
-784 1165 -897 92 -20 133 -22 335 -22 202 0 243 2 335 22 670 146 1167 644
1312 1315 30 141 33 481 4 632 -134 718 -710 1265 -1433 1360 -137 18 -312 18
-445 0z m452 -745 c104 -25 264 -101 347 -164 134 -101 255 -261 317 -417 47
-121 60 -193 60 -344 0 -151 -13 -223 -60 -344 -62 -156 -183 -316 -317 -417
-84 -64 -243 -138 -352 -165 -126 -32 -314 -32 -440 0 -109 27 -268 101 -352
165 -134 101 -255 261 -317 417 -47 121 -60 193 -60 344 0 151 13 223 60 344
62 156 183 316 317 417 115 87 289 159 445 184 83 13 254 3 352 -20z"/>
<path d="M25280 3767 l0 -1677 350 0 350 0 2 895 3 895 1052 -890 c579 -490
1055 -890 1058 -890 3 0 5 752 5 1670 l0 1670 -355 0 -355 0 -2 -906 -3 -905
-1035 891 c-569 491 -1043 899 -1052 907 -17 15 -18 -64 -18 -1660z"/>
<path d="M29850 5075 l0 -365 465 0 465 0 0 -1310 0 -1310 350 0 350 0 0 1310
0 1310 460 0 460 0 0 365 0 365 -1275 0 -1275 0 0 -365z"/>
<path d="M34160 3760 l0 -1680 1120 0 1120 0 0 360 0 360 -765 0 -765 0 0 298
0 299 398 6 c218 4 484 7 590 7 l192 0 0 355 0 355 -590 0 -590 0 0 295 0 295
765 0 765 0 0 365 0 365 -1120 0 -1120 0 0 -1680z"/>
<path d="M39655 5433 c-22 -2 -89 -13 -148 -24 -506 -94 -937 -416 -1176 -879
-328 -636 -216 -1411 278 -1923 266 -275 567 -434 946 -499 103 -17 147 -20
315 -15 142 4 220 11 289 26 359 78 689 268 917 529 412 471 532 1097 323
1689 -137 387 -451 738 -832 930 -264 132 -601 194 -912 166z m291 -734 c211
-29 399 -123 551 -275 180 -180 276 -412 276 -669 0 -489 -361 -889 -853 -947
-204 -24 -439 32 -615 147 -79 51 -251 226 -293 297 -189 321 -189 685 0 1006
42 71 214 246 293 297 185 121 424 174 641 144z"/>
</g>
</svg>
